<?xml version="1.0" encoding="UTF-8"?>
<svg xmlns="http://www.w3.org/2000/svg" viewBox="0 0 455 723">
  <defs>
    <style>
      .cls-1 {
        fill: #455955;
      }

      .cls-1, .cls-2, .cls-3, .cls-4, .cls-5, .cls-6, .cls-7, .cls-8, .cls-9, .cls-10, .cls-11, .cls-12, .cls-13 {
        stroke-miterlimit: 10;
      }

      .cls-1, .cls-2, .cls-3, .cls-11, .cls-12, .cls-13 {
        stroke-linecap: round;
      }

      .cls-1, .cls-6, .cls-9, .cls-11 {
        stroke: #00010d;
      }

      .cls-1, .cls-6, .cls-13 {
        stroke-width: 3px;
      }

      .cls-2, .cls-3, .cls-5, .cls-7 {
        fill: none;
      }

      .cls-2, .cls-3, .cls-5, .cls-7, .cls-8, .cls-10, .cls-12 {
        stroke: #d9d9d9;
      }

      .cls-2, .cls-5 {
        stroke-width: .5px;
      }

      .cls-14, .cls-6, .cls-8, .cls-11, .cls-12, .cls-13 {
        fill: #d9d9d9;
      }

      .cls-3, .cls-7, .cls-8, .cls-12 {
        stroke-width: .25px;
      }

      .cls-4 {
        fill: #fff;
        stroke: #fff;
        stroke-width: .75px;
      }

      .cls-15, .cls-9 {
        fill: #a6a6a6;
      }

      .cls-10, .cls-16 {
        fill: #0d2426;
      }

      .cls-11 {
        stroke-width: 2px;
      }

      .cls-17 {
        letter-spacing: -.06em;
      }

      .cls-16 {
        font-family: MontecatiniPro-StrettoUltra, 'Montecatini Pro';
        font-size: 50px;
      }

      .cls-18 {
        letter-spacing: 0em;
      }

      .cls-13 {
        stroke: #a6a6a6;
      }
    </style>
  </defs>
  <g id="Background">
    <rect class="cls-6" x="1.5" y="1.5" width="452" height="720"/>
    <path class="cls-1" d="M412.43,703.5H48.57c0-14.4-11.67-26.07-26.07-26.07V103.57c14.4,0,26.07-11.67,26.07-26.07h363.85c0,14.4,11.67,26.07,26.07,26.07v573.85c-14.4,0-26.07,11.67-26.07,26.07Z"/>
    <text class="cls-16" transform="translate(39.88 56.29)"><tspan x="0" y="0">Wise Man F</tspan><tspan class="cls-17" x="252.55" y="0">e</tspan><tspan x="272.45" y="0">a</tspan><tspan class="cls-18" x="303.85" y="0">r</tspan><tspan x="333.65" y="0">s</tspan></text>
    <rect class="cls-14" x="205.06" y="208.48" width="26.51" height="3.38" rx="1.2" ry="1.2"/>
  </g>
  <g id="Sword">
    <g id="blade">
      <path class="cls-13" d="M230.5,661.5l-9,20c-1-2-14-21-21-55l-13-385c18.64-.18,14.83-26.09,30.5-27h0c16.29,0,20.5,29,33.5,29l-10,383c-2,10-9,30-11,35Z"/>
      <path class="cls-15" d="M222.53,628.41l-.03.09c-1-2-3-11-3-11,0,0,0,0,0,0l-1-334c0-1,2-5,2-5,0,0,0,0,0,0l2-5s0,0,0,0c-.06-.39,2,10,2,10t.5,10v326.5c-.5-10,0,0,0,0l-2.47,8.41Z"/>
    </g>
    <g id="Handle">
      <path class="cls-10" d="M230.16,146.16l-24.25-4.51c-.56-.56-.56-1.69-.56-2.26v-7.55c0-.19.16-.33.34-.3,4.47.66,20.08,3.36,24.47,4.46h0c1.13,0,1.13,2.74,1.13,3.95v4.01c0,1.21,0,2.19-1.13,2.19Z"/>
      <path class="cls-10" d="M229.03,155.68l-22-3.38c-1.13-.56-1.69-1.61-1.69-2.82v-6.84c0-.53.47-.93.99-.84,5.16.83,19.63,3.24,23.83,4.3h0c1.13,0,1.13,2.74,1.13,3.95v4.01c0,1.21-1.04,1.63-2.26,1.63Z"/>
      <path class="cls-10" d="M229.03,165.74l-22-3.38c-1.13-.56-1.69-1.61-1.69-2.82v-6.84c0-.53.47-.93.99-.84,5.16.83,19.63,3.24,23.83,4.3h0c1.13,0,1.13,2.74,1.13,3.95v4.01c0,1.21-1.04,1.63-2.26,1.63Z"/>
      <path class="cls-10" d="M229.03,175.8l-22-3.38c-1.13-.56-1.69-1.61-1.69-2.82v-6.84c0-.53.47-.93.99-.84,5.16.83,19.63,3.24,23.83,4.3h0c1.13,0,1.13,2.74,1.13,3.95v4.01c0,1.21-1.04,1.63-2.26,1.63Z"/>
      <path class="cls-10" d="M229.03,186.2l-22-3.38c-1.13-.56-1.69-1.61-1.69-2.82v-6.84c0-.53.47-.93.99-.84,5.16.83,19.63,3.24,23.83,4.3h0c1.13,0,1.13,2.74,1.13,3.95v4.01c0,1.21-1.04,1.63-2.26,1.63Z"/>
      <path class="cls-10" d="M229.03,195.79l-22-3.38c-1.13-.56-1.69-1.61-1.69-2.82v-6.84c0-.53.47-.93.99-.84,5.16.83,19.63,3.24,23.83,4.3h0c1.13,0,1.13,2.74,1.13,3.95v4.01c0,1.21-1.04,1.63-2.26,1.63Z"/>
      <path class="cls-10" d="M229.03,205.38l-22-3.38c-1.13-.56-1.69-1.61-1.69-2.82v-6.84c0-.53.47-.93.99-.84,5.16.83,19.63,3.24,23.83,4.3h0c1.13,0,1.13,2.74,1.13,3.95v4.01c0,1.21-1.04,1.63-2.26,1.63Z"/>
      <path class="cls-10" d="M230.16,209.89l-22.56-1.13c-1.13,0-2.26.08-2.26-1.13v-5.69c0-.53.47-.93.99-.84,5.16.83,19.63,3.24,23.83,4.3h0c1.13,0,1.13,2.74,1.13,3.95v-1.7c0,1.21.08,2.26-1.13,2.26Z"/>
      <path class="cls-10" d="M206.47,126.76l22.56,1.13c1.13,0,2.26-.08,2.26,1.13v5.69c0,.53-.47.93-.99.84-5.16-.83-23.83-4.07-24.39-4.07h0c-.56,0-.56-.56-.56-1.69v-2.26c0-.56-.08-.78,1.13-.78Z"/>
      <rect class="cls-14" x="205.06" y="125.57" width="26.51" height="3.38" rx="1.2" ry="1.2"/>
      <path class="cls-9" d="M242.5,226.5c0,16.57-24,30-24,30,0,0-22.9-14.63-24-30-1-14,10.75-14,24-14s24-1,24,14Z"/>
      <polygon class="cls-4" points="246.42 279.02 236.46 532.92 236.46 532.92 244.21 248.89 246.42 279.02"/>
      <path class="cls-10" d="M230.72,112.88c3.09,12.35,1.13,14.66-11.84,14.1-.58-.03-1.85.03-3.51-.06-5.29-.28-7.93-.42-9.26-1.83-2-2.12-.94-6.13.36-11.09,1.01-3.85,2.32-6.63,3.15-8.34,5.1-10.55,7.66-15.82,9.82-15.91,5.21-.23,9.27,15.1,11.28,23.12Z"/>
      <line class="cls-3" x1="213.66" y1="114.52" x2="214.87" y2="116.09"/>
      <rect class="cls-11" x="186.5" y="219.5" width="8" height="10"/>
      <rect class="cls-11" x="242.5" y="219.5" width="8" height="10"/>
      <rect class="cls-11" x="182" y="216.5" width="4.5" height="16"/>
      <rect class="cls-11" x="250.94" y="216.34" width="4.5" height="16"/>
      <path class="cls-11" d="M287.88,249.29l-2,2c-5.88,2.71-9.15.15-10.27-2.6l-8.1-19.69h-11.51v-10h19l1,3,7,20s8,1,4.88,7.29Z"/>
      <path class="cls-10" d="M218,249v3c-5.63-2-13.46-10.3-15.84-13.51-.67-.91-1.15-1.91-1.45-2.96l-.71-2.53h18s0,16,0,16Z"/>
      <path class="cls-3" d="M227.14,101.71l-1.49,2.31c-.25.39-.46.81-.61,1.25l-.52,1.48c-.38,1.09-.45,2.26-.18,3.38h0c.27,1.16.89,2.2,1.76,3.01l.9.83c.1.09.2.19.3.3l.43.46c.84.89,1.38,2.02,1.56,3.23l.16,1.12c.04.29.06.58.06.87v1.33c0,1.06-.28,2.1-.82,3.02l-.47.81c-.07.12-.13.24-.19.36l-.52,1.05"/>
      <path class="cls-10" d="M206.38,216h5.76c3.24,0,5.87,2.63,5.87,5.87v10.13h-18v-9.62c0-3.52,2.86-6.38,6.38-6.38Z"/>
      <line class="cls-12" x1="200" y1="223.38" x2="207" y2="232"/>
      <line class="cls-12" x1="200.5" y1="228" x2="204.5" y2="232.5"/>
      <path class="cls-11" d="M182,229h-23c0,1.5-1.69,4.69-5.48,4.5-2.56-.13-4.52-2.37-4.52-4.94v-2.67c0-3.8,3.08-6.89,6.89-6.89h26.11v10Z"/>
      <line class="cls-12" x1="201" y1="220" x2="210" y2="232"/>
      <line class="cls-12" x1="202.5" y1="217.99" x2="213.08" y2="231.5"/>
      <line class="cls-12" x1="204.5" y1="216.71" x2="216.18" y2="231.5"/>
      <line class="cls-12" x1="207.29" y1="216.47" x2="218" y2="230"/>
      <line class="cls-12" x1="209.97" y1="216.47" x2="218" y2="226"/>
      <line class="cls-12" x1="212.65" y1="216.47" x2="217.58" y2="222.38"/>
      <polyline class="cls-5" points="216.58 109.21 220 100 222 109"/>
      <g>
        <path class="cls-10" d="M218.5,216.5h18.5v10.13c0,3.24-2.63,5.87-5.87,5.87h-6.26c-3.52,0-6.38-2.86-6.38-6.38v-9.62h0Z" transform="translate(455.5 449) rotate(180)"/>
        <line class="cls-12" x1="237" y1="223.88" x2="229.81" y2="232.5"/>
        <line class="cls-12" x1="236.49" y1="228.5" x2="232.37" y2="233"/>
        <line class="cls-12" x1="234.43" y1="218.49" x2="223.56" y2="232"/>
        <line class="cls-8" x1="227" y1="232" x2="236.5" y2="220.5"/>
        <line class="cls-12" x1="232.37" y1="217.21" x2="220.37" y2="232"/>
        <line class="cls-12" x1="229.51" y1="216.97" x2="218.5" y2="230.5"/>
        <line class="cls-12" x1="224" y1="216.97" x2="218.93" y2="222.88"/>
        <line class="cls-12" x1="227" y1="217" x2="218.93" y2="226"/>
      </g>
      <line class="cls-8" x1="215.11" y1="233.5" x2="217.58" y2="238.38"/>
      <line class="cls-8" x1="212.65" y1="233.5" x2="217.58" y2="243.83"/>
      <line class="cls-8" x1="210" y1="233" x2="218" y2="249"/>
      <line class="cls-8" x1="207.29" y1="233.5" x2="216.69" y2="251.44"/>
      <line class="cls-8" x1="204" y1="232" x2="212" y2="248"/>
      <line class="cls-8" x1="201.82" y1="233.5" x2="207.62" y2="244.42"/>
      <g>
        <path class="cls-10" d="M219,249.02v3c5.62-2,13.46-10.31,15.84-13.53.67-.91,1.15-1.91,1.45-2.96l.71-2.53h-18s0,16.02,0,16.02Z"/>
        <line class="cls-8" x1="221.89" y1="233.5" x2="219.42" y2="238.38"/>
        <line class="cls-8" x1="224.35" y1="233.5" x2="219.42" y2="243.85"/>
        <line class="cls-8" x1="227" y1="233" x2="219" y2="249.02"/>
        <line class="cls-8" x1="229.71" y1="233.5" x2="220.31" y2="251.47"/>
        <line class="cls-8" x1="233" y1="232" x2="225" y2="248.02"/>
        <line class="cls-8" x1="235.18" y1="233.5" x2="229.38" y2="244.44"/>
      </g>
      <path class="cls-2" d="M214.5,126.5l-.75-1.52c-.16-.33-.38-.64-.64-.9l-.61-.62h0c-.64-.65-1-1.01-1-2.02v-3.23c0-.54.12-1.07.36-1.54h0c.42-.85,1.04-1.59,1.8-2.15l.79-.59c.27-.2.52-.44.72-.72h0c.86-1.17,1.33-2.58,1.33-4.04v-.46c0-.28-.03-.56-.1-.84l-.03-.12c-.58-2.34-1.44-4.59-2.58-6.71l-.79-1.05"/>
      <path class="cls-2" d="M226.5,99.5l-1.52,1.75c-1.25,2.14-2.2,4.42-2.84,6.79l-.03.12c-.07.28-.11.56-.11.85v.47c0,1.47.51,2.91,1.46,4.09h0c.22.28.49.52.79.73l1.41.95c.49.33.88.76,1.15,1.26l.29.55c.26.49.4,1.02.4,1.56v1.22s0,1.62,0,1.62c0,.93-.4,1.82-1.1,2.47h0s-.67.62-.67.62c-.29.27-.52.57-.7.91l-.83,1.54"/>
      <path class="cls-3" d="M211,104l.65,1.94c.23.7.35,1.43.35,2.17v.77c0,.74-.12,1.47-.35,2.17l-.1.29c-.36,1.08-.99,2.06-1.82,2.84l-.1.1c-.42.39-.78.83-1.09,1.31l-.46.71c-.71,1.1-1.08,2.39-1.08,3.7v.37c0,1.07.25,2.12.72,3.07h0c.18.37.4.72.65,1.04l1.13,1.51"/>
      <path class="cls-3" d="M212,101.71l2,4.29.06.26c.6,2.39.18,4.92-1.15,6.99h0s-.25.24-.25.24c-1.73,1.63-2.84,3.79-3.17,6.14h0c0,2.32.81,4.56,2.3,6.33l.45.54"/>
      <path class="cls-3" d="M209.5,106.9l.13,1.05c.24,1.99-.13,4-1.07,5.77h0c-.14.26-.33.48-.56.65l-1,.74h0c-.64.57-1,1.04-1,1.89l-1,2c0,1.78,1.26,3.87,1.79,5.57l.21.7"/>
      <path class="cls-3" d="M228.08,104.6h0c-.71.92-1.19,1.99-1.42,3.13h0c-.09.45-.11.9-.06,1.35h0c.15,1.52.89,2.91,2.06,3.89h0c.22.19.41.41.56.66l.22.39c.37.65.68,1.34.92,2.05l.64,1.93,1,3"/>
      <path class="cls-2" d="M215.17,113.21h0c-.55,2.86-.34,5.82.6,8.58h0c.49,1.42,1.09,2.81,1.8,4.13l.45.84h3.98l.07-.09c1.27-1.76,2.09-3.79,2.4-5.94h0c.35-2.44,0-4.93-1-7.18h0"/>
      <path class="cls-3" d="M220.89,104l-.98,1.81c-.94,1.73-1.79,3.51-2.55,5.32h0c-.24.58-.38,1.19-.43,1.81h0c-.23,3.22.05,6.45.84,9.57l.25,1.01.85,3.46"/>
      <path class="cls-3" d="M221.33,105.99l-1.18,3.03c-1.09,2.8-1.65,5.77-1.65,8.78h0s.68,3.22.68,3.22c.37,1.74.6,3.5.68,5.27l.05,1.15"/>
      <path class="cls-3" d="M222,109l-1.11,3.8-.18.98c-.52,2.78.3,8.22.3,9.22v1l-.11,2.98"/>
      <line class="cls-3" x1="212.19" y1="115.92" x2="215" y2="119"/>
      <line class="cls-3" x1="213" y1="115" x2="215" y2="118"/>
      <line class="cls-3" x1="211.92" y1="117.17" x2="215.36" y2="120.4"/>
      <line class="cls-3" x1="211.5" y1="118.21" x2="215.77" y2="121.8"/>
      <line class="cls-3" x1="211.5" y1="119.42" x2="216.42" y2="123.52"/>
      <line class="cls-3" x1="211.5" y1="121.05" x2="217" y2="125"/>
      <line class="cls-3" x1="212" y1="123" x2="217.57" y2="125.93"/>
      <line class="cls-3" x1="214" y1="125.27" x2="217.42" y2="126.5"/>
      <line class="cls-3" x1="225.66" y1="115.24" x2="224" y2="117"/>
      <line class="cls-3" x1="226.41" y1="115.92" x2="224.75" y2="117.99"/>
      <line class="cls-3" x1="227.02" y1="117.41" x2="224.52" y2="119.62"/>
      <line class="cls-3" x1="227.5" y1="118.61" x2="224.47" y2="120.73"/>
      <line class="cls-3" x1="227.5" y1="119.83" x2="224.47" y2="121.8"/>
      <polyline class="cls-3" points="227.5 121.46 223.75 123.52 224 115"/>
      <line class="cls-3" x1="227.11" y1="123" x2="223.36" y2="124.46"/>
      <path class="cls-3" d="M225.73,124.55l-2.78.72h0c-.37-1.16-.61-2.36-.69-3.58v-.14c-.18-2.37-.17-4.75,0-7.13l-.27-4.43"/>
      <line class="cls-3" x1="224.75" y1="126" x2="222.52" y2="126"/>
      <polyline class="cls-2" points="214.26 101.71 216.85 96.85 219.29 101.71"/>
      <polyline class="cls-2" points="220.38 101.71 223.26 96.85 224.98 101.25"/>
      <line class="cls-3" x1="219" y1="100.87" x2="219" y2="102.62"/>
      <line class="cls-7" x1="217.77" y1="98.67" x2="217.67" y2="106.27"/>
      <polyline class="cls-7" points="217.05 107.94 217.3 97.74 219.42 95 219.91 94.37 222.68 97.74"/>
      <polyline class="cls-7" points="216.37 107.76 216.85 96.85 215.7 97.36"/>
      <line class="cls-7" x1="214.87" y1="100.57" x2="214.67" y2="102.84"/>
      <line class="cls-3" x1="218.37" y1="99.87" x2="218.37" y2="104.13"/>
      <line class="cls-3" x1="215.24" y1="99.87" x2="215.16" y2="104"/>
      <line class="cls-3" x1="221.27" y1="100.57" x2="220.98" y2="104.41"/>
      <line class="cls-3" x1="221.91" y1="99.12" x2="221.33" y2="105.23"/>
      <polyline class="cls-3" points="222.62 106.16 223.32 97.43 224.52 94.9"/>
      <path class="cls-3" d="M222.62,98.43s-.71,9.85-.62,9.57"/>
      <line class="cls-3" x1="223.87" y1="98.67" x2="223.62" y2="103.9"/>
      <line class="cls-3" x1="224.33" y1="100" x2="224.33" y2="102.43"/>
      <polyline class="cls-3" points="218.87 95.71 217 93 215 94.9 216.01 98.43 215.78 105.7"/>
      <line class="cls-3" x1="217.77" y1="97.29" x2="219.47" y2="100.57"/>
      <line class="cls-3" x1="219.91" y1="94.37" x2="220.18" y2="99.11"/>
      <polyline class="cls-3" points="220.53 95.11 220.24 98.8 221.12 95.84 222.31 93 223.74 93.96"/>
      <line class="cls-3" x1="221.91" y1="96.96" x2="220.18" y2="99.94"/>
      <line class="cls-3" x1="225.16" y1="96.76" x2="224.33" y2="98.84"/>
      <line class="cls-3" x1="226" y1="97.98" x2="224.83" y2="100.53"/>
      <line class="cls-3" x1="214.26" y1="96.96" x2="215.24" y2="99.28"/>
      <line class="cls-3" x1="213.6" y1="98.43" x2="214.49" y2="100.87"/>
      <line class="cls-3" x1="216.94" y1="93.31" x2="216.85" y2="96.62"/>
      <polyline class="cls-3" points="219.42 95 220 99 218.87 95.83 218.75 96 217.05 93.88 215 95"/>
      <polyline class="cls-3" points="218.5 96.08 216.89 94.9 215 95.49"/>
      <polyline class="cls-3" points="215 96 216.88 95.64 218.37 96.35 220 99 220.09 99.28 221.57 96.38"/>
      <polyline class="cls-3" points="215.56 96.74 216.75 96.24 218.08 96.85 220 100"/>
      <polyline class="cls-3" points="223.26 96.85 222.53 93.88 222.39 93.31 221 90"/>
      <polyline class="cls-3" points="220.38 100.67 222.31 97.36 222.82 95.19 224.05 95.9"/>
      <line class="cls-3" x1="222.62" y1="94.68" x2="221.76" y2="96.62"/>
      <line class="cls-3" x1="222.53" y1="93.88" x2="221.33" y2="96.09"/>
      <line class="cls-3" x1="222.53" y1="93.67" x2="224.24" y2="94.77"/>
      <line class="cls-3" x1="222.62" y1="94.37" x2="224.24" y2="95.49"/>
      <line class="cls-3" x1="223.07" y1="96.09" x2="223.7" y2="96.62"/>
      <polyline class="cls-3" points="221.62 94.37 220.24 90 218.87 95.83"/>
      <line class="cls-3" x1="219.44" y1="89.75" x2="217" y2="93"/>
      <polyline class="cls-3" points="217.5 93.88 219.72 90 218.16 94.68"/>
      <line class="cls-3" x1="220.25" y1="89.53" x2="220.24" y2="94.68"/>
    </g>
  </g>
</svg>